<svg width="151" height="110" viewBox="0 0 151 110" fill="none" xmlns="http://www.w3.org/2000/svg">
<path d="M110 11H42C36.4772 11 32 15.4772 32 21V89C32 94.5229 36.4772 99 42 99H110C115.523 99 120 94.5229 120 89V21C120 15.4772 115.523 11 110 11Z" fill="#1B5E47"/>
<path d="M60.3306 64.879C59.4973 64.879 58.6102 64.8925 57.6694 64.9193C56.7554 64.9193 55.8817 64.9328 55.0484 64.9597C54.2419 64.9597 53.543 64.9731 52.9516 65L53.3952 63.4274L54.8468 63.3064C55.707 63.2258 56.379 63.0914 56.8629 62.9032C57.3468 62.6882 57.7231 62.3656 57.9919 61.9355C58.2876 61.4785 58.543 60.8199 58.7581 59.9597L63.9597 41.4919C64.1747 40.6586 64.2823 40.0134 64.2823 39.5564C64.2823 39.0994 64.0941 38.7769 63.7177 38.5887C63.3683 38.3736 62.7769 38.2258 61.9436 38.1451L60.5323 38.0242L60.9355 36.4516C61.5 36.4785 62.1855 36.5054 62.9919 36.5322C63.8253 36.5322 64.6989 36.5457 65.6129 36.5726C66.5538 36.5726 67.4543 36.5726 68.3145 36.5726H73.5161C74.7258 36.5726 75.9086 36.5726 77.0645 36.5726C78.2204 36.5457 79.336 36.5322 80.4113 36.5322C81.4866 36.5054 82.5081 36.4785 83.4758 36.4516C83.207 37.7688 82.9919 39.0457 82.8306 40.2822C82.6962 41.5188 82.6022 42.9301 82.5484 44.5161H80.9355C80.6667 42.9032 80.25 41.6398 79.6855 40.7258C79.121 39.7849 78.2742 39.1263 77.1452 38.75C76.0161 38.3468 74.4704 38.1451 72.5081 38.1451H71.0161L64.8468 60.2016C64.4973 61.465 64.457 62.2984 64.7258 62.7016C65.0215 63.1048 65.8011 63.3064 67.0645 63.3064H67.9113C69.6586 63.3064 71.2312 63.0511 72.629 62.5403C74.0269 62.0027 75.3441 61.0887 76.5806 59.7984C77.8172 58.4812 79.0806 56.6935 80.371 54.4355H81.9839C81.0161 56.5322 80.2231 58.414 79.6048 60.0806C78.9866 61.7473 78.4892 63.3871 78.1129 65C76.9839 64.9731 75.8952 64.9597 74.8468 64.9597C73.7984 64.9328 72.6962 64.9193 71.5403 64.9193C70.4113 64.8925 69.121 64.879 67.6694 64.879H60.3306ZM65.9758 51.4113L66.4194 49.879H74.6048L74.1613 51.4113H65.9758ZM73.4758 56.4919C73.6102 55.3898 73.5565 54.4624 73.3145 53.7097C73.0726 52.957 72.6022 52.3925 71.9032 52.0161C71.2043 51.6129 70.2097 51.4113 68.9194 51.4113L69.8065 49.879C71.0161 49.879 72.0242 49.7043 72.8306 49.3548C73.6371 49.0054 74.3495 48.4543 74.9677 47.7016C75.586 46.9489 76.164 45.9812 76.7016 44.7984H78.3145C77.8306 46.2231 77.4677 47.3521 77.2258 48.1855C76.9839 49.0188 76.7419 49.8387 76.5 50.6451C76.2581 51.586 76.0296 52.4731 75.8145 53.3064C75.5995 54.1129 75.3575 55.1747 75.0887 56.4919H73.4758Z" fill="white"/>
<path d="M86.5968 54.5968L89.5 43.4677C89.9839 41.3978 90.6962 39.6237 91.6371 38.1452C92.6048 36.6398 93.8145 35.4839 95.2661 34.6774C96.7177 33.871 98.4113 33.4677 100.347 33.4677C102.228 33.4677 103.694 33.8172 104.742 34.5161C105.817 35.1882 106.355 36.1425 106.355 37.379C106.355 38.4274 105.978 39.328 105.226 40.0806C104.5 40.8333 103.613 41.2097 102.565 41.2097C101.973 41.2097 101.516 41.0753 101.194 40.8065C100.871 40.5376 100.71 40.1747 100.71 39.7177C100.71 39.2339 100.831 38.7769 101.073 38.3468C101.341 37.8898 101.597 37.4597 101.839 37.0565C102.108 36.6532 102.242 36.2634 102.242 35.8871C102.242 35.2688 101.758 34.9597 100.79 34.9597C99.5 34.9597 98.4516 35.5108 97.6452 36.6129C96.8387 37.6882 96.1935 39.3011 95.7097 41.4516L92.2419 54.5968H86.5968ZM84.1774 45.7258L84.5806 44.1935H100.226L99.8226 45.7258H84.1774ZM91.0323 59.4758L90.4274 61.8548C89.8091 64.3817 88.9086 66.5995 87.7258 68.5081C86.543 70.4167 85.1317 71.8952 83.4919 72.9436C81.879 74.0188 80.078 74.5833 78.0887 74.6371C76.7446 74.664 75.7097 74.4489 74.9839 73.9919C74.2312 73.5618 73.8414 72.9301 73.8145 72.0968C73.8145 71.3979 74.043 70.8199 74.5 70.3629C74.957 69.9059 75.5484 69.664 76.2742 69.6371C76.8656 69.6102 77.3763 69.7312 77.8064 70C78.2366 70.2688 78.6263 70.578 78.9758 70.9274C79.2984 71.2769 79.621 71.586 79.9435 71.8548C80.2392 72.1237 80.5618 72.2581 80.9113 72.2581C81.422 72.2312 81.8387 71.9086 82.1613 71.2903C82.5108 70.672 82.8468 69.7312 83.1694 68.4677L85.3468 59.5968L86.5968 54.5968H92.2419L91.0323 59.4758Z" fill="white"/>
<path opacity="0.95" d="M46 84C66 80.6667 86 80.6667 106 84" stroke="white" stroke-width="2" stroke-linecap="round"/>
<path opacity="0.55" d="M48 89C66.6667 86.3333 85.3333 86.3333 104 89" stroke="white" stroke-width="2" stroke-linecap="round"/>
</svg>
