<svg width="431" height="195" viewBox="0 0 431 195" fill="none" xmlns="http://www.w3.org/2000/svg">
<path d="M250 21H182C176.477 21 172 25.4772 172 31V99C172 104.523 176.477 109 182 109H250C255.523 109 260 104.523 260 99V31C260 25.4772 255.523 21 250 21Z" fill="#1B5E47"/>
<path d="M200.331 74.879C199.497 74.879 198.61 74.8925 197.669 74.9193C196.755 74.9193 195.882 74.9328 195.048 74.9597C194.242 74.9597 193.543 74.9731 192.952 75L193.395 73.4274L194.847 73.3064C195.707 73.2258 196.379 73.0914 196.863 72.9032C197.347 72.6882 197.723 72.3656 197.992 71.9355C198.288 71.4785 198.543 70.8199 198.758 69.9597L203.96 51.4919C204.175 50.6586 204.282 50.0134 204.282 49.5564C204.282 49.0994 204.094 48.7769 203.718 48.5887C203.368 48.3736 202.777 48.2258 201.944 48.1451L200.532 48.0242L200.935 46.4516C201.5 46.4785 202.185 46.5054 202.992 46.5322C203.825 46.5322 204.699 46.5457 205.613 46.5726C206.554 46.5726 207.454 46.5726 208.315 46.5726H213.516C214.726 46.5726 215.909 46.5726 217.065 46.5726C218.22 46.5457 219.336 46.5322 220.411 46.5322C221.487 46.5054 222.508 46.4785 223.476 46.4516C223.207 47.7688 222.992 49.0457 222.831 50.2822C222.696 51.5188 222.602 52.9301 222.548 54.5161H220.935C220.667 52.9032 220.25 51.6398 219.685 50.7258C219.121 49.7849 218.274 49.1263 217.145 48.75C216.016 48.3468 214.47 48.1451 212.508 48.1451H211.016L204.847 70.2016C204.497 71.465 204.457 72.2984 204.726 72.7016C205.022 73.1048 205.801 73.3064 207.065 73.3064H207.911C209.659 73.3064 211.231 73.0511 212.629 72.5403C214.027 72.0027 215.344 71.0887 216.581 69.7984C217.817 68.4812 219.081 66.6935 220.371 64.4355H221.984C221.016 66.5322 220.223 68.414 219.605 70.0806C218.987 71.7473 218.489 73.3871 218.113 75C216.984 74.9731 215.895 74.9597 214.847 74.9597C213.798 74.9328 212.696 74.9193 211.54 74.9193C210.411 74.8925 209.121 74.879 207.669 74.879H200.331ZM205.976 61.4113L206.419 59.879H214.605L214.161 61.4113H205.976ZM213.476 66.4919C213.61 65.3898 213.556 64.4624 213.315 63.7097C213.073 62.957 212.602 62.3925 211.903 62.0161C211.204 61.6129 210.21 61.4113 208.919 61.4113L209.806 59.879C211.016 59.879 212.024 59.7043 212.831 59.3548C213.637 59.0054 214.349 58.4543 214.968 57.7016C215.586 56.9489 216.164 55.9812 216.702 54.7984H218.315C217.831 56.2231 217.468 57.3521 217.226 58.1855C216.984 59.0188 216.742 59.8387 216.5 60.6451C216.258 61.586 216.03 62.4731 215.815 63.3064C215.599 64.1129 215.358 65.1747 215.089 66.4919H213.476Z" fill="white"/>
<path d="M226.597 64.5968L229.5 53.4678C229.984 51.3979 230.696 49.6237 231.637 48.1452C232.605 46.6398 233.815 45.4839 235.266 44.6774C236.718 43.871 238.411 43.4678 240.347 43.4678C242.228 43.4678 243.694 43.8172 244.742 44.5162C245.817 45.1882 246.355 46.1425 246.355 47.3791C246.355 48.4275 245.978 49.328 245.226 50.0807C244.5 50.8334 243.613 51.2097 242.565 51.2097C241.973 51.2097 241.516 51.0753 241.194 50.8065C240.871 50.5377 240.71 50.1748 240.71 49.7178C240.71 49.2339 240.831 48.7769 241.073 48.3468C241.341 47.8898 241.597 47.4597 241.839 47.0565C242.108 46.6533 242.242 46.2635 242.242 45.8871C242.242 45.2688 241.758 44.9597 240.79 44.9597C239.5 44.9597 238.452 45.5108 237.645 46.6129C236.839 47.6882 236.194 49.3011 235.71 51.4516L232.242 64.5968H226.597ZM224.177 55.7258L224.581 54.1936H240.226L239.823 55.7258H224.177ZM231.032 69.4758L230.427 71.8549C229.809 74.3818 228.909 76.5995 227.726 78.5081C226.543 80.4167 225.132 81.8952 223.492 82.9436C221.879 84.0188 220.078 84.5834 218.089 84.6371C216.745 84.664 215.71 84.449 214.984 83.992C214.231 83.5619 213.841 82.9301 213.815 82.0968C213.815 81.3979 214.043 80.8199 214.5 80.3629C214.957 79.9059 215.548 79.664 216.274 79.6371C216.866 79.6102 217.376 79.7312 217.806 80C218.237 80.2688 218.626 80.578 218.976 80.9275C219.298 81.2769 219.621 81.5861 219.944 81.8549C220.239 82.1237 220.562 82.2581 220.911 82.2581C221.422 82.2312 221.839 81.9086 222.161 81.2904C222.511 80.6721 222.847 79.7312 223.169 78.4678L225.347 69.5968L226.597 64.5968H232.242L231.032 69.4758Z" fill="white"/>
<path opacity="0.95" d="M186 94C206 90.6667 226 90.6667 246 94" stroke="white" stroke-width="2" stroke-linecap="round"/>
<path opacity="0.55" d="M188 99C206.667 96.3333 225.333 96.3333 244 99" stroke="white" stroke-width="2" stroke-linecap="round"/>
<path d="M250 21H182C176.477 21 172 25.4772 172 31V99C172 104.523 176.477 109 182 109H250C255.523 109 260 104.523 260 99V31C260 25.4772 255.523 21 250 21Z" fill="#1B5E47"/>
<path d="M200.331 74.879C199.497 74.879 198.61 74.8925 197.669 74.9193C196.755 74.9193 195.882 74.9328 195.048 74.9597C194.242 74.9597 193.543 74.9731 192.952 75L193.395 73.4274L194.847 73.3064C195.707 73.2258 196.379 73.0914 196.863 72.9032C197.347 72.6882 197.723 72.3656 197.992 71.9355C198.288 71.4785 198.543 70.8199 198.758 69.9597L203.96 51.4919C204.175 50.6586 204.282 50.0134 204.282 49.5564C204.282 49.0994 204.094 48.7769 203.718 48.5887C203.368 48.3736 202.777 48.2258 201.944 48.1451L200.532 48.0242L200.935 46.4516C201.5 46.4785 202.185 46.5054 202.992 46.5322C203.825 46.5322 204.699 46.5457 205.613 46.5726C206.554 46.5726 207.454 46.5726 208.315 46.5726H213.516C214.726 46.5726 215.909 46.5726 217.065 46.5726C218.22 46.5457 219.336 46.5322 220.411 46.5322C221.487 46.5054 222.508 46.4785 223.476 46.4516C223.207 47.7688 222.992 49.0457 222.831 50.2822C222.696 51.5188 222.602 52.9301 222.548 54.5161H220.935C220.667 52.9032 220.25 51.6398 219.685 50.7258C219.121 49.7849 218.274 49.1263 217.145 48.75C216.016 48.3468 214.47 48.1451 212.508 48.1451H211.016L204.847 70.2016C204.497 71.465 204.457 72.2984 204.726 72.7016C205.022 73.1048 205.801 73.3064 207.065 73.3064H207.911C209.659 73.3064 211.231 73.0511 212.629 72.5403C214.027 72.0027 215.344 71.0887 216.581 69.7984C217.817 68.4812 219.081 66.6935 220.371 64.4355H221.984C221.016 66.5322 220.223 68.414 219.605 70.0806C218.987 71.7473 218.489 73.3871 218.113 75C216.984 74.9731 215.895 74.9597 214.847 74.9597C213.798 74.9328 212.696 74.9193 211.54 74.9193C210.411 74.8925 209.121 74.879 207.669 74.879H200.331ZM205.976 61.4113L206.419 59.879H214.605L214.161 61.4113H205.976ZM213.476 66.4919C213.61 65.3898 213.556 64.4624 213.315 63.7097C213.073 62.957 212.602 62.3925 211.903 62.0161C211.204 61.6129 210.21 61.4113 208.919 61.4113L209.806 59.879C211.016 59.879 212.024 59.7043 212.831 59.3548C213.637 59.0054 214.349 58.4543 214.968 57.7016C215.586 56.9489 216.164 55.9812 216.702 54.7984H218.315C217.831 56.2231 217.468 57.3521 217.226 58.1855C216.984 59.0188 216.742 59.8387 216.5 60.6451C216.258 61.586 216.03 62.4731 215.815 63.3064C215.599 64.1129 215.358 65.1747 215.089 66.4919H213.476Z" fill="white"/>
<path d="M226.597 64.5968L229.5 53.4678C229.984 51.3979 230.696 49.6237 231.637 48.1452C232.605 46.6398 233.815 45.4839 235.266 44.6774C236.718 43.871 238.411 43.4678 240.347 43.4678C242.228 43.4678 243.694 43.8172 244.742 44.5162C245.817 45.1882 246.355 46.1425 246.355 47.3791C246.355 48.4275 245.978 49.328 245.226 50.0807C244.5 50.8334 243.613 51.2097 242.565 51.2097C241.973 51.2097 241.516 51.0753 241.194 50.8065C240.871 50.5377 240.71 50.1748 240.71 49.7178C240.71 49.2339 240.831 48.7769 241.073 48.3468C241.341 47.8898 241.597 47.4597 241.839 47.0565C242.108 46.6533 242.242 46.2635 242.242 45.8871C242.242 45.2688 241.758 44.9597 240.79 44.9597C239.5 44.9597 238.452 45.5108 237.645 46.6129C236.839 47.6882 236.194 49.3011 235.71 51.4516L232.242 64.5968H226.597ZM224.177 55.7258L224.581 54.1936H240.226L239.823 55.7258H224.177ZM231.032 69.4758L230.427 71.8549C229.809 74.3818 228.909 76.5995 227.726 78.5081C226.543 80.4167 225.132 81.8952 223.492 82.9436C221.879 84.0188 220.078 84.5834 218.089 84.6371C216.745 84.664 215.71 84.449 214.984 83.992C214.231 83.5619 213.841 82.9301 213.815 82.0968C213.815 81.3979 214.043 80.8199 214.5 80.3629C214.957 79.9059 215.548 79.664 216.274 79.6371C216.866 79.6102 217.376 79.7312 217.806 80C218.237 80.2688 218.626 80.578 218.976 80.9275C219.298 81.2769 219.621 81.5861 219.944 81.8549C220.239 82.1237 220.562 82.2581 220.911 82.2581C221.422 82.2312 221.839 81.9086 222.161 81.2904C222.511 80.6721 222.847 79.7312 223.169 78.4678L225.347 69.5968L226.597 64.5968H232.242L231.032 69.4758Z" fill="white"/>
<path opacity="0.95" d="M186 94C206 90.6667 226 90.6667 246 94" stroke="white" stroke-width="2" stroke-linecap="round"/>
<path opacity="0.55" d="M188 99C206.667 96.3333 225.333 96.3333 244 99" stroke="white" stroke-width="2" stroke-linecap="round"/>
<path d="M250 21H182C176.477 21 172 25.4772 172 31V99C172 104.523 176.477 109 182 109H250C255.523 109 260 104.523 260 99V31C260 25.4772 255.523 21 250 21Z" fill="#1B5E47"/>
<path d="M200.331 74.879C199.497 74.879 198.61 74.8925 197.669 74.9193C196.755 74.9193 195.882 74.9328 195.048 74.9597C194.242 74.9597 193.543 74.9731 192.952 75L193.395 73.4274L194.847 73.3064C195.707 73.2258 196.379 73.0914 196.863 72.9032C197.347 72.6882 197.723 72.3656 197.992 71.9355C198.288 71.4785 198.543 70.8199 198.758 69.9597L203.96 51.4919C204.175 50.6586 204.282 50.0134 204.282 49.5564C204.282 49.0994 204.094 48.7769 203.718 48.5887C203.368 48.3736 202.777 48.2258 201.944 48.1451L200.532 48.0242L200.935 46.4516C201.5 46.4785 202.185 46.5054 202.992 46.5322C203.825 46.5322 204.699 46.5457 205.613 46.5726C206.554 46.5726 207.454 46.5726 208.315 46.5726H213.516C214.726 46.5726 215.909 46.5726 217.065 46.5726C218.22 46.5457 219.336 46.5322 220.411 46.5322C221.487 46.5054 222.508 46.4785 223.476 46.4516C223.207 47.7688 222.992 49.0457 222.831 50.2822C222.696 51.5188 222.602 52.9301 222.548 54.5161H220.935C220.667 52.9032 220.25 51.6398 219.685 50.7258C219.121 49.7849 218.274 49.1263 217.145 48.75C216.016 48.3468 214.47 48.1451 212.508 48.1451H211.016L204.847 70.2016C204.497 71.465 204.457 72.2984 204.726 72.7016C205.022 73.1048 205.801 73.3064 207.065 73.3064H207.911C209.659 73.3064 211.231 73.0511 212.629 72.5403C214.027 72.0027 215.344 71.0887 216.581 69.7984C217.817 68.4812 219.081 66.6935 220.371 64.4355H221.984C221.016 66.5322 220.223 68.414 219.605 70.0806C218.987 71.7473 218.489 73.3871 218.113 75C216.984 74.9731 215.895 74.9597 214.847 74.9597C213.798 74.9328 212.696 74.9193 211.54 74.9193C210.411 74.8925 209.121 74.879 207.669 74.879H200.331ZM205.976 61.4113L206.419 59.879H214.605L214.161 61.4113H205.976ZM213.476 66.4919C213.61 65.3898 213.556 64.4624 213.315 63.7097C213.073 62.957 212.602 62.3925 211.903 62.0161C211.204 61.6129 210.21 61.4113 208.919 61.4113L209.806 59.879C211.016 59.879 212.024 59.7043 212.831 59.3548C213.637 59.0054 214.349 58.4543 214.968 57.7016C215.586 56.9489 216.164 55.9812 216.702 54.7984H218.315C217.831 56.2231 217.468 57.3521 217.226 58.1855C216.984 59.0188 216.742 59.8387 216.5 60.6451C216.258 61.586 216.03 62.4731 215.815 63.3064C215.599 64.1129 215.358 65.1747 215.089 66.4919H213.476Z" fill="white"/>
<path d="M226.597 64.5968L229.5 53.4678C229.984 51.3979 230.696 49.6237 231.637 48.1452C232.605 46.6398 233.815 45.4839 235.266 44.6774C236.718 43.871 238.411 43.4678 240.347 43.4678C242.228 43.4678 243.694 43.8172 244.742 44.5162C245.817 45.1882 246.355 46.1425 246.355 47.3791C246.355 48.4275 245.978 49.328 245.226 50.0807C244.5 50.8334 243.613 51.2097 242.565 51.2097C241.973 51.2097 241.516 51.0753 241.194 50.8065C240.871 50.5377 240.71 50.1748 240.71 49.7178C240.71 49.2339 240.831 48.7769 241.073 48.3468C241.341 47.8898 241.597 47.4597 241.839 47.0565C242.108 46.6533 242.242 46.2635 242.242 45.8871C242.242 45.2688 241.758 44.9597 240.79 44.9597C239.5 44.9597 238.452 45.5108 237.645 46.6129C236.839 47.6882 236.194 49.3011 235.71 51.4516L232.242 64.5968H226.597ZM224.177 55.7258L224.581 54.1936H240.226L239.823 55.7258H224.177ZM231.032 69.4758L230.427 71.8549C229.809 74.3818 228.909 76.5995 227.726 78.5081C226.543 80.4167 225.132 81.8952 223.492 82.9436C221.879 84.0188 220.078 84.5834 218.089 84.6371C216.745 84.664 215.71 84.449 214.984 83.992C214.231 83.5619 213.841 82.9301 213.815 82.0968C213.815 81.3979 214.043 80.8199 214.5 80.3629C214.957 79.9059 215.548 79.664 216.274 79.6371C216.866 79.6102 217.376 79.7312 217.806 80C218.237 80.2688 218.626 80.578 218.976 80.9275C219.298 81.2769 219.621 81.5861 219.944 81.8549C220.239 82.1237 220.562 82.2581 220.911 82.2581C221.422 82.2312 221.839 81.9086 222.161 81.2904C222.511 80.6721 222.847 79.7312 223.169 78.4678L225.347 69.5968L226.597 64.5968H232.242L231.032 69.4758Z" fill="white"/>
<path opacity="0.95" d="M186 94C206 90.6667 226 90.6667 246 94" stroke="white" stroke-width="2" stroke-linecap="round"/>
<path opacity="0.55" d="M188 99C206.667 96.3333 225.333 96.3333 244 99" stroke="white" stroke-width="2" stroke-linecap="round"/>
<path d="M250 21H182C176.477 21 172 25.4772 172 31V99C172 104.523 176.477 109 182 109H250C255.523 109 260 104.523 260 99V31C260 25.4772 255.523 21 250 21Z" fill="#1B5E47"/>
<path d="M200.331 74.879C199.497 74.879 198.61 74.8925 197.669 74.9193C196.755 74.9193 195.882 74.9328 195.048 74.9597C194.242 74.9597 193.543 74.9731 192.952 75L193.395 73.4274L194.847 73.3064C195.707 73.2258 196.379 73.0914 196.863 72.9032C197.347 72.6882 197.723 72.3656 197.992 71.9355C198.288 71.4785 198.543 70.8199 198.758 69.9597L203.96 51.4919C204.175 50.6586 204.282 50.0134 204.282 49.5564C204.282 49.0994 204.094 48.7769 203.718 48.5887C203.368 48.3736 202.777 48.2258 201.944 48.1451L200.532 48.0242L200.935 46.4516C201.5 46.4785 202.185 46.5054 202.992 46.5322C203.825 46.5322 204.699 46.5457 205.613 46.5726C206.554 46.5726 207.454 46.5726 208.315 46.5726H213.516C214.726 46.5726 215.909 46.5726 217.065 46.5726C218.22 46.5457 219.336 46.5322 220.411 46.5322C221.487 46.5054 222.508 46.4785 223.476 46.4516C223.207 47.7688 222.992 49.0457 222.831 50.2822C222.696 51.5188 222.602 52.9301 222.548 54.5161H220.935C220.667 52.9032 220.25 51.6398 219.685 50.7258C219.121 49.7849 218.274 49.1263 217.145 48.75C216.016 48.3468 214.47 48.1451 212.508 48.1451H211.016L204.847 70.2016C204.497 71.465 204.457 72.2984 204.726 72.7016C205.022 73.1048 205.801 73.3064 207.065 73.3064H207.911C209.659 73.3064 211.231 73.0511 212.629 72.5403C214.027 72.0027 215.344 71.0887 216.581 69.7984C217.817 68.4812 219.081 66.6935 220.371 64.4355H221.984C221.016 66.5322 220.223 68.414 219.605 70.0806C218.987 71.7473 218.489 73.3871 218.113 75C216.984 74.9731 215.895 74.9597 214.847 74.9597C213.798 74.9328 212.696 74.9193 211.54 74.9193C210.411 74.8925 209.121 74.879 207.669 74.879H200.331ZM205.976 61.4113L206.419 59.879H214.605L214.161 61.4113H205.976ZM213.476 66.4919C213.61 65.3898 213.556 64.4624 213.315 63.7097C213.073 62.957 212.602 62.3925 211.903 62.0161C211.204 61.6129 210.21 61.4113 208.919 61.4113L209.806 59.879C211.016 59.879 212.024 59.7043 212.831 59.3548C213.637 59.0054 214.349 58.4543 214.968 57.7016C215.586 56.9489 216.164 55.9812 216.702 54.7984H218.315C217.831 56.2231 217.468 57.3521 217.226 58.1855C216.984 59.0188 216.742 59.8387 216.5 60.6451C216.258 61.586 216.03 62.4731 215.815 63.3064C215.599 64.1129 215.358 65.1747 215.089 66.4919H213.476Z" fill="white"/>
<path d="M226.597 64.5968L229.5 53.4678C229.984 51.3979 230.696 49.6237 231.637 48.1452C232.605 46.6398 233.815 45.4839 235.266 44.6774C236.718 43.871 238.411 43.4678 240.347 43.4678C242.228 43.4678 243.694 43.8172 244.742 44.5162C245.817 45.1882 246.355 46.1425 246.355 47.3791C246.355 48.4275 245.978 49.328 245.226 50.0807C244.5 50.8334 243.613 51.2097 242.565 51.2097C241.973 51.2097 241.516 51.0753 241.194 50.8065C240.871 50.5377 240.71 50.1748 240.71 49.7178C240.71 49.2339 240.831 48.7769 241.073 48.3468C241.341 47.8898 241.597 47.4597 241.839 47.0565C242.108 46.6533 242.242 46.2635 242.242 45.8871C242.242 45.2688 241.758 44.9597 240.79 44.9597C239.5 44.9597 238.452 45.5108 237.645 46.6129C236.839 47.6882 236.194 49.3011 235.71 51.4516L232.242 64.5968H226.597ZM224.177 55.7258L224.581 54.1936H240.226L239.823 55.7258H224.177ZM231.032 69.4758L230.427 71.8549C229.809 74.3818 228.909 76.5995 227.726 78.5081C226.543 80.4167 225.132 81.8952 223.492 82.9436C221.879 84.0188 220.078 84.5834 218.089 84.6371C216.745 84.664 215.71 84.449 214.984 83.992C214.231 83.5619 213.841 82.9301 213.815 82.0968C213.815 81.3979 214.043 80.8199 214.5 80.3629C214.957 79.9059 215.548 79.664 216.274 79.6371C216.866 79.6102 217.376 79.7312 217.806 80C218.237 80.2688 218.626 80.578 218.976 80.9275C219.298 81.2769 219.621 81.5861 219.944 81.8549C220.239 82.1237 220.562 82.2581 220.911 82.2581C221.422 82.2312 221.839 81.9086 222.161 81.2904C222.511 80.6721 222.847 79.7312 223.169 78.4678L225.347 69.5968L226.597 64.5968H232.242L231.032 69.4758Z" fill="white"/>
<path opacity="0.95" d="M186 94C206 90.6667 226 90.6667 246 94" stroke="white" stroke-width="2" stroke-linecap="round"/>
<path opacity="0.55" d="M188 99C206.667 96.3333 225.333 96.3333 244 99" stroke="white" stroke-width="2" stroke-linecap="round"/>
<path d="M174.121 144.956C173.84 144.956 173.545 144.961 173.235 144.971C172.926 144.971 172.635 144.976 172.365 144.985C172.094 144.985 171.861 144.99 171.668 145V144.434L172.132 144.39C172.432 144.352 172.66 144.298 172.815 144.231C172.969 144.163 173.071 144.052 173.119 143.897C173.177 143.732 173.206 143.495 173.206 143.185V136.537C173.206 136.227 173.177 135.995 173.119 135.84C173.071 135.676 172.969 135.56 172.815 135.492C172.66 135.415 172.432 135.361 172.132 135.332L171.668 135.289V134.723C171.861 134.723 172.094 134.727 172.365 134.737C172.635 134.747 172.926 134.756 173.235 134.766C173.545 134.766 173.84 134.766 174.121 134.766H174.324H176.676C177.411 134.766 178.035 134.761 178.548 134.752C179.061 134.742 179.502 134.732 179.869 134.723C179.86 135.187 179.865 135.661 179.884 136.145C179.903 136.619 179.937 137.113 179.985 137.626H179.405C179.221 137.055 179.003 136.605 178.752 136.276C178.5 135.937 178.185 135.695 177.808 135.55C177.44 135.405 176.976 135.332 176.415 135.332H175.413V143.229C175.413 143.539 175.437 143.781 175.485 143.955C175.544 144.129 175.645 144.245 175.79 144.303C175.945 144.361 176.163 144.39 176.444 144.39H176.981C177.387 144.39 177.745 144.332 178.055 144.216C178.374 144.09 178.66 143.897 178.911 143.635C179.163 143.374 179.385 143.045 179.579 142.648C179.782 142.242 179.971 141.758 180.145 141.197H180.726C180.658 141.855 180.605 142.503 180.566 143.142C180.527 143.771 180.513 144.39 180.523 145C180.116 144.981 179.632 144.971 179.071 144.971C178.51 144.961 177.818 144.956 176.995 144.956H174.324H174.121ZM174.847 140.108V139.556H177.765V140.108H174.847ZM178.011 142.01C177.963 141.574 177.871 141.221 177.735 140.95C177.6 140.669 177.416 140.461 177.184 140.326C176.952 140.181 176.661 140.108 176.313 140.108V139.556C176.806 139.556 177.189 139.397 177.46 139.077C177.731 138.758 177.905 138.284 177.982 137.655H178.563C178.524 138.187 178.505 138.608 178.505 138.918C178.505 139.227 178.505 139.532 178.505 139.832C178.505 140.035 178.505 140.239 178.505 140.442C178.505 140.645 178.51 140.873 178.519 141.124C178.539 141.366 178.558 141.661 178.577 142.01H178.011ZM186.946 145C186.743 145 186.472 144.995 186.133 144.985C185.804 144.966 185.475 144.956 185.146 144.956C184.837 144.956 184.512 144.961 184.174 144.971C183.845 144.971 183.53 144.976 183.23 144.985C182.93 144.985 182.674 144.99 182.461 145V144.434L182.954 144.39C183.254 144.361 183.477 144.313 183.622 144.245C183.777 144.168 183.878 144.052 183.927 143.897C183.975 143.732 183.999 143.495 183.999 143.185V136.537C183.999 136.227 183.975 135.995 183.927 135.84C183.878 135.676 183.777 135.56 183.622 135.492C183.477 135.415 183.254 135.361 182.954 135.332L182.461 135.289V134.723C182.674 134.723 182.93 134.727 183.23 134.737C183.53 134.747 183.845 134.756 184.174 134.766C184.512 134.766 184.837 134.766 185.146 134.766C185.475 134.766 185.804 134.761 186.133 134.752C186.472 134.732 186.743 134.723 186.946 134.723H187.367C189.341 134.723 190.832 135.139 191.838 135.971C192.845 136.803 193.348 138.027 193.348 139.644C193.348 140.766 193.106 141.729 192.622 142.532C192.148 143.326 191.461 143.935 190.561 144.361C189.67 144.787 188.591 145 187.324 145H186.946ZM187.382 144.448C188.649 144.448 189.574 144.081 190.154 143.345C190.745 142.6 191.04 141.434 191.04 139.847C191.04 138.25 190.749 137.089 190.169 136.363C189.588 135.637 188.654 135.274 187.367 135.274H186.22V143.215C186.22 143.553 186.249 143.815 186.307 143.998C186.366 144.173 186.477 144.294 186.641 144.361C186.816 144.419 187.062 144.448 187.382 144.448ZM197.078 144.956C196.797 144.956 196.502 144.961 196.193 144.971C195.883 144.971 195.593 144.976 195.322 144.985C195.051 144.985 194.818 144.99 194.625 145V144.434L195.089 144.39C195.389 144.352 195.617 144.298 195.772 144.231C195.926 144.163 196.028 144.052 196.076 143.897C196.134 143.732 196.163 143.495 196.163 143.185V136.537C196.163 136.227 196.134 135.995 196.076 135.84C196.028 135.676 195.926 135.56 195.772 135.492C195.617 135.415 195.389 135.361 195.089 135.332L194.625 135.289V134.723C194.818 134.723 195.051 134.727 195.322 134.737C195.593 134.747 195.883 134.756 196.193 134.766C196.502 134.766 196.797 134.766 197.078 134.766H197.267H197.455C197.746 134.766 198.041 134.766 198.341 134.766C198.651 134.756 198.941 134.747 199.212 134.737C199.483 134.727 199.715 134.723 199.909 134.723V135.289L199.444 135.332C199.144 135.361 198.917 135.415 198.762 135.492C198.607 135.56 198.501 135.676 198.443 135.84C198.394 135.995 198.37 136.227 198.37 136.537V143.185C198.37 143.495 198.394 143.732 198.443 143.897C198.501 144.052 198.607 144.163 198.762 144.231C198.917 144.298 199.144 144.352 199.444 144.39L199.909 144.434V145C199.715 144.99 199.483 144.985 199.212 144.985C198.941 144.976 198.651 144.971 198.341 144.971C198.041 144.961 197.746 144.956 197.455 144.956H197.267H197.078ZM206.128 145.203C205.111 145.203 204.236 144.99 203.5 144.565C202.765 144.129 202.199 143.519 201.802 142.735C201.415 141.942 201.221 141.013 201.221 139.948C201.221 138.865 201.429 137.916 201.845 137.103C202.261 136.29 202.837 135.656 203.573 135.202C204.308 134.747 205.165 134.519 206.142 134.519C206.636 134.519 207.057 134.568 207.405 134.665C207.753 134.752 208.044 134.863 208.276 134.998C208.518 135.124 208.726 135.235 208.9 135.332C209.084 135.419 209.249 135.463 209.394 135.463C209.539 135.463 209.65 135.395 209.728 135.26C209.815 135.115 209.878 134.892 209.916 134.592H210.497C210.487 134.911 210.478 135.24 210.468 135.579C210.458 135.918 210.449 136.319 210.439 136.784C210.439 137.248 210.439 137.829 210.439 138.526H209.858C209.752 137.819 209.553 137.219 209.263 136.726C208.982 136.232 208.624 135.855 208.189 135.594C207.753 135.332 207.255 135.202 206.694 135.202C205.697 135.202 204.918 135.608 204.357 136.421C203.805 137.234 203.529 138.376 203.529 139.847C203.529 141.327 203.81 142.484 204.371 143.316C204.932 144.139 205.716 144.55 206.723 144.55C207.274 144.55 207.768 144.419 208.203 144.158C208.639 143.887 208.997 143.5 209.278 142.997C209.568 142.494 209.761 141.894 209.858 141.197H210.439C210.439 141.865 210.439 142.435 210.439 142.91C210.449 143.374 210.458 143.781 210.468 144.129C210.478 144.477 210.487 144.811 210.497 145.131H209.916C209.878 144.811 209.819 144.589 209.742 144.463C209.665 144.337 209.549 144.274 209.394 144.274C209.239 144.274 209.074 144.323 208.9 144.419C208.726 144.506 208.518 144.613 208.276 144.739C208.034 144.865 207.739 144.971 207.39 145.058C207.042 145.155 206.621 145.203 206.128 145.203ZM214.779 144.956C214.499 144.956 214.203 144.961 213.894 144.971C213.584 144.971 213.294 144.976 213.023 144.985C212.752 144.985 212.519 144.99 212.326 145V144.434L212.79 144.39C213.09 144.352 213.318 144.298 213.473 144.231C213.628 144.163 213.729 144.052 213.778 143.897C213.836 143.732 213.865 143.495 213.865 143.185V136.537C213.865 136.227 213.836 135.995 213.778 135.84C213.729 135.676 213.628 135.56 213.473 135.492C213.318 135.415 213.09 135.361 212.79 135.332L212.326 135.289V134.723C212.519 134.723 212.752 134.727 213.023 134.737C213.294 134.747 213.584 134.756 213.894 134.766C214.203 134.766 214.499 134.766 214.779 134.766H214.968H215.157C215.447 134.766 215.742 134.766 216.042 134.766C216.352 134.756 216.642 134.747 216.913 134.737C217.184 134.727 217.416 134.723 217.61 134.723V135.289L217.145 135.332C216.845 135.361 216.618 135.415 216.463 135.492C216.308 135.56 216.202 135.676 216.144 135.84C216.095 135.995 216.071 136.227 216.071 136.537V143.185C216.071 143.495 216.095 143.732 216.144 143.897C216.202 144.052 216.308 144.163 216.463 144.231C216.618 144.298 216.845 144.352 217.145 144.39L217.61 144.434V145C217.416 144.99 217.184 144.985 216.913 144.985C216.642 144.976 216.352 144.971 216.042 144.971C215.742 144.961 215.447 144.956 215.157 144.956H214.968H214.779ZM224.215 145.203C223.15 145.203 222.216 144.985 221.413 144.55C220.619 144.105 220 143.485 219.555 142.692C219.11 141.898 218.887 140.965 218.887 139.89C218.887 138.826 219.11 137.892 219.555 137.089C220.01 136.285 220.634 135.656 221.427 135.202C222.231 134.747 223.165 134.519 224.229 134.519C225.294 134.519 226.227 134.742 227.031 135.187C227.834 135.623 228.453 136.237 228.889 137.031C229.334 137.824 229.556 138.758 229.556 139.832C229.556 140.887 229.334 141.821 228.889 142.634C228.444 143.437 227.819 144.066 227.016 144.521C226.213 144.976 225.279 145.203 224.215 145.203ZM224.244 144.666C224.824 144.666 225.342 144.468 225.797 144.071C226.252 143.665 226.605 143.103 226.856 142.387C227.118 141.661 227.248 140.815 227.248 139.847C227.248 138.869 227.113 138.023 226.842 137.306C226.571 136.59 226.203 136.039 225.739 135.652C225.284 135.255 224.771 135.056 224.2 135.056C223.619 135.056 223.102 135.26 222.647 135.666C222.192 136.063 221.834 136.624 221.573 137.35C221.321 138.066 221.195 138.908 221.195 139.876C221.195 140.853 221.331 141.7 221.602 142.416C221.873 143.132 222.24 143.689 222.705 144.085C223.169 144.473 223.682 144.666 224.244 144.666ZM239.429 145.102L233.173 136.131H232.97V141.371H232.389V136.537C232.389 136.227 232.36 135.995 232.302 135.84C232.244 135.676 232.137 135.56 231.982 135.492C231.837 135.415 231.615 135.361 231.315 135.332L230.85 135.289V134.723C231.044 134.723 231.276 134.727 231.547 134.737C231.818 134.747 232.103 134.756 232.403 134.766C232.713 134.766 233.013 134.766 233.303 134.766H233.521C233.792 134.766 234.039 134.761 234.262 134.752C234.494 134.742 234.692 134.732 234.857 134.723L239.284 141.153H239.502V136.537C239.502 136.092 239.439 135.792 239.313 135.637C239.197 135.473 238.921 135.366 238.486 135.318L238.007 135.289V134.723C238.22 134.732 238.491 134.742 238.82 134.752C239.158 134.761 239.478 134.766 239.778 134.766C239.991 134.766 240.208 134.766 240.431 134.766C240.663 134.756 240.886 134.747 241.099 134.737C241.312 134.727 241.486 134.723 241.621 134.723V135.289L241.128 135.332C240.837 135.361 240.615 135.415 240.46 135.492C240.315 135.56 240.213 135.676 240.155 135.84C240.107 135.995 240.082 136.227 240.082 136.537V145.102H239.429ZM232.97 143.185C232.97 143.621 233.037 143.916 233.173 144.071C233.308 144.226 233.603 144.323 234.058 144.361L234.9 144.434V145C234.707 144.99 234.484 144.985 234.232 144.985C233.981 144.976 233.72 144.971 233.449 144.971C233.187 144.961 232.931 144.956 232.679 144.956C232.476 144.956 232.258 144.961 232.026 144.971C231.794 144.971 231.576 144.976 231.373 144.985C231.17 144.985 230.991 144.99 230.836 145V144.434L231.329 144.39C231.629 144.361 231.852 144.313 231.997 144.245C232.152 144.168 232.253 144.052 232.302 143.897C232.36 143.732 232.389 143.495 232.389 143.185V141.371H232.97V143.185ZM245.558 144.956C245.278 144.956 244.983 144.961 244.673 144.971C244.363 144.971 244.073 144.976 243.802 144.985C243.531 144.985 243.299 144.99 243.105 145V144.434L243.57 144.39C243.87 144.352 244.097 144.298 244.252 144.231C244.407 144.163 244.508 144.052 244.557 143.897C244.615 143.732 244.644 143.495 244.644 143.185V136.537C244.644 136.227 244.615 135.995 244.557 135.84C244.508 135.676 244.407 135.56 244.252 135.492C244.097 135.415 243.87 135.361 243.57 135.332L243.105 135.289V134.723C243.299 134.723 243.531 134.727 243.802 134.737C244.073 134.747 244.363 134.756 244.673 134.766C244.983 134.766 245.278 134.766 245.558 134.766H245.762H248.113C248.849 134.766 249.473 134.761 249.986 134.752C250.499 134.742 250.939 134.732 251.307 134.723C251.297 135.187 251.302 135.661 251.321 136.145C251.341 136.619 251.375 137.113 251.423 137.626H250.842C250.658 137.055 250.441 136.605 250.189 136.276C249.938 135.937 249.623 135.695 249.246 135.55C248.878 135.405 248.413 135.332 247.852 135.332H246.85V143.229C246.85 143.539 246.875 143.781 246.923 143.955C246.981 144.129 247.083 144.245 247.228 144.303C247.383 144.361 247.6 144.39 247.881 144.39H248.418C248.825 144.39 249.183 144.332 249.492 144.216C249.812 144.09 250.097 143.897 250.349 143.635C250.6 143.374 250.823 143.045 251.017 142.648C251.22 142.242 251.408 141.758 251.583 141.197H252.163C252.096 141.855 252.042 142.503 252.004 143.142C251.965 143.771 251.95 144.39 251.96 145C251.554 144.981 251.07 144.971 250.508 144.971C249.947 144.961 249.255 144.956 248.433 144.956H245.762H245.558ZM246.284 140.108V139.556H249.202V140.108H246.284ZM249.449 142.01C249.4 141.574 249.308 141.221 249.173 140.95C249.037 140.669 248.854 140.461 248.621 140.326C248.389 140.181 248.099 140.108 247.75 140.108V139.556C248.244 139.556 248.626 139.397 248.897 139.077C249.168 138.758 249.342 138.284 249.42 137.655H250C249.962 138.187 249.942 138.608 249.942 138.918C249.942 139.227 249.942 139.532 249.942 139.832C249.942 140.035 249.942 140.239 249.942 140.442C249.942 140.645 249.947 140.873 249.957 141.124C249.976 141.366 249.996 141.661 250.015 142.01H249.449ZM258.453 145.203C257.862 145.203 257.364 145.145 256.957 145.029C256.551 144.913 256.217 144.802 255.956 144.695C255.704 144.579 255.501 144.521 255.346 144.521C255.22 144.521 255.119 144.569 255.041 144.666C254.974 144.763 254.92 144.918 254.882 145.131H254.301C254.32 144.889 254.335 144.603 254.344 144.274C254.354 143.945 254.359 143.529 254.359 143.026C254.369 142.513 254.374 141.869 254.374 141.095H254.954C255.07 142.208 255.409 143.069 255.97 143.679C256.541 144.289 257.286 144.594 258.206 144.594C258.864 144.594 259.377 144.439 259.744 144.129C260.122 143.819 260.311 143.394 260.311 142.852C260.311 142.513 260.224 142.213 260.049 141.952C259.875 141.69 259.594 141.458 259.207 141.255C258.83 141.042 258.332 140.848 257.712 140.674C256.957 140.461 256.338 140.205 255.854 139.905C255.38 139.605 255.027 139.252 254.794 138.845C254.572 138.439 254.461 137.969 254.461 137.437C254.461 136.547 254.761 135.84 255.361 135.318C255.97 134.785 256.798 134.519 257.843 134.519C258.385 134.519 258.835 134.577 259.193 134.694C259.551 134.8 259.846 134.911 260.078 135.027C260.32 135.144 260.519 135.202 260.674 135.202C260.799 135.202 260.896 135.153 260.964 135.056C261.041 134.96 261.099 134.805 261.138 134.592H261.719C261.699 134.815 261.685 135.061 261.675 135.332C261.665 135.603 261.656 135.952 261.646 136.377C261.646 136.794 261.646 137.345 261.646 138.032H261.065C260.988 137.442 260.814 136.929 260.543 136.494C260.272 136.058 259.924 135.719 259.498 135.477C259.082 135.235 258.607 135.115 258.075 135.115C257.504 135.115 257.059 135.255 256.74 135.535C256.43 135.816 256.275 136.194 256.275 136.668C256.275 136.997 256.357 137.287 256.522 137.539C256.696 137.781 256.977 138.003 257.364 138.206C257.751 138.41 258.278 138.613 258.946 138.816C259.711 139.039 260.33 139.305 260.804 139.615C261.288 139.915 261.641 140.268 261.864 140.674C262.096 141.081 262.212 141.555 262.212 142.097C262.212 143.055 261.878 143.815 261.211 144.376C260.543 144.927 259.624 145.203 258.453 145.203Z" fill="#1B5E47"/>
<path d="M159.335 166.94C158.931 166.94 158.501 166.946 158.044 166.96C157.587 166.96 157.151 166.966 156.734 166.98C156.331 166.98 155.981 166.987 155.685 167V166.214L156.27 166.153C156.633 166.099 156.909 166.032 157.097 165.952C157.285 165.858 157.413 165.696 157.48 165.468C157.547 165.239 157.581 164.91 157.581 164.48V155.246C157.581 154.816 157.547 154.487 157.48 154.258C157.413 154.03 157.285 153.868 157.097 153.774C156.909 153.68 156.633 153.613 156.27 153.573L155.685 153.512V152.726C155.981 152.739 156.331 152.753 156.734 152.766C157.151 152.766 157.587 152.773 158.044 152.786C158.501 152.786 158.931 152.786 159.335 152.786H159.657H162.702C163.844 152.786 164.792 152.78 165.544 152.766C166.31 152.753 166.962 152.739 167.5 152.726C167.487 153.331 167.487 153.969 167.5 154.641C167.527 155.313 167.567 156.019 167.621 156.758H166.815C166.573 156.032 166.263 155.434 165.887 154.964C165.511 154.493 165.054 154.144 164.516 153.915C163.978 153.687 163.333 153.573 162.581 153.573H161.673V164.56C161.673 164.977 161.707 165.306 161.774 165.548C161.855 165.777 161.983 165.938 162.157 166.032C162.345 166.113 162.608 166.153 162.944 166.153H163.427C163.925 166.153 164.388 166.046 164.819 165.831C165.262 165.602 165.672 165.28 166.048 164.863C166.425 164.433 166.767 163.922 167.077 163.331C167.386 162.739 167.655 162.081 167.883 161.355H168.69C168.609 162.363 168.542 163.337 168.488 164.278C168.448 165.219 168.434 166.126 168.448 167C167.923 166.973 167.272 166.96 166.492 166.96C165.726 166.946 164.765 166.94 163.609 166.94H159.657H159.335ZM160.786 160.206V159.44H164.677V160.206H160.786ZM164.94 162.907C164.872 162.316 164.731 161.819 164.516 161.415C164.301 161.012 164.026 160.71 163.69 160.508C163.353 160.306 162.95 160.206 162.48 160.206V159.44C163.138 159.44 163.676 159.204 164.093 158.734C164.523 158.263 164.798 157.598 164.919 156.738H165.726C165.672 157.437 165.645 158.008 165.645 158.452C165.645 158.882 165.645 159.339 165.645 159.823C165.645 160.132 165.645 160.434 165.645 160.73C165.659 161.026 165.672 161.348 165.685 161.698C165.699 162.034 165.719 162.437 165.746 162.907H164.94ZM175.606 167.282C174.584 167.282 173.704 167.067 172.964 166.637C172.225 166.194 171.654 165.569 171.251 164.762C170.848 163.942 170.646 162.968 170.646 161.839C170.646 160.669 170.861 159.668 171.291 158.835C171.721 158.001 172.333 157.363 173.126 156.919C173.932 156.476 174.887 156.254 175.989 156.254C176.795 156.254 177.494 156.375 178.085 156.617C178.69 156.859 179.154 157.195 179.477 157.625C179.813 158.055 179.981 158.559 179.981 159.137C179.981 159.702 179.799 160.179 179.436 160.569C179.087 160.958 178.596 161.153 177.964 161.153C177.534 161.153 177.185 161.046 176.916 160.831C176.647 160.616 176.513 160.333 176.513 159.984C176.513 159.634 176.614 159.345 176.815 159.117C177.017 158.875 177.212 158.647 177.4 158.431C177.602 158.216 177.702 157.981 177.702 157.726C177.702 157.551 177.628 157.417 177.481 157.323C177.346 157.228 177.151 157.181 176.896 157.181C176.13 157.181 175.525 157.565 175.081 158.331C174.638 159.097 174.416 160.125 174.416 161.415C174.416 162.746 174.631 163.767 175.061 164.48C175.505 165.179 176.143 165.528 176.977 165.528C177.555 165.528 178.045 165.367 178.448 165.044C178.865 164.708 179.221 164.211 179.517 163.552L180.243 163.935C179.839 165.051 179.241 165.891 178.448 166.456C177.669 167.007 176.721 167.282 175.606 167.282ZM186.353 156.516V161.758H182.724V158.794C182.724 158.284 182.643 157.927 182.482 157.726C182.334 157.524 182.018 157.397 181.535 157.343L181.172 157.302V156.516C181.521 156.53 181.844 156.543 182.139 156.556C182.435 156.556 182.778 156.556 183.168 156.556C183.786 156.556 184.35 156.536 184.861 156.496C185.385 156.442 185.883 156.375 186.353 156.294V156.516ZM186.353 161.758V164.036C186.353 164.614 186.467 165.044 186.696 165.327C186.924 165.595 187.274 165.73 187.744 165.73C188.242 165.73 188.685 165.555 189.075 165.206C189.465 164.856 189.821 164.292 190.143 163.512L190.385 163.754C189.928 165.017 189.344 165.918 188.631 166.456C187.919 166.993 187.066 167.262 186.071 167.262C184.969 167.262 184.135 166.966 183.571 166.375C183.006 165.784 182.724 164.91 182.724 163.754V161.758H186.353ZM189.518 167V161.758H193.148V164.722C193.148 165.233 193.221 165.589 193.369 165.79C193.531 165.992 193.853 166.12 194.337 166.173L194.7 166.214V167C194.35 166.987 194.028 166.98 193.732 166.98C193.437 166.966 193.094 166.96 192.704 166.96C192.086 166.96 191.514 166.98 190.99 167.02C190.48 167.06 189.989 167.128 189.518 167.222V167ZM193.148 156.516V161.758H189.518V158.794C189.518 158.284 189.445 157.927 189.297 157.726C189.149 157.511 188.86 157.376 188.43 157.323L188.148 157.302V156.516C188.497 156.53 188.813 156.543 189.095 156.556C189.391 156.556 189.707 156.556 190.043 156.556C190.634 156.556 191.178 156.536 191.676 156.496C192.187 156.442 192.677 156.375 193.148 156.294V156.516ZM202.023 161.758V159.198C202.023 158.458 201.882 157.921 201.6 157.585C201.318 157.249 200.881 157.081 200.29 157.081C199.9 157.081 199.591 157.141 199.362 157.262C199.147 157.383 199.04 157.544 199.04 157.746C199.04 157.921 199.1 158.102 199.221 158.29C199.355 158.465 199.476 158.653 199.584 158.855C199.705 159.043 199.765 159.258 199.765 159.5C199.765 159.823 199.611 160.091 199.302 160.306C198.992 160.508 198.583 160.609 198.072 160.609C197.521 160.609 197.084 160.468 196.761 160.185C196.452 159.903 196.298 159.52 196.298 159.036C196.298 158.472 196.499 157.981 196.902 157.565C197.306 157.148 197.87 156.825 198.596 156.597C199.335 156.368 200.195 156.254 201.177 156.254C202.776 156.254 203.919 156.59 204.604 157.262C205.303 157.934 205.652 159.056 205.652 160.629V161.758H202.023ZM198.838 167.282C197.924 167.282 197.198 167.06 196.66 166.617C196.136 166.16 195.874 165.548 195.874 164.782C195.874 164.164 196.022 163.667 196.318 163.29C196.613 162.901 196.99 162.585 197.447 162.343C197.917 162.101 198.415 161.899 198.939 161.738C199.463 161.563 199.96 161.402 200.431 161.254C200.901 161.093 201.284 160.905 201.58 160.69C201.889 160.461 202.044 160.172 202.044 159.823L202.124 160.851C202.057 161.106 201.929 161.321 201.741 161.496C201.553 161.671 201.338 161.839 201.096 162C200.867 162.148 200.639 162.316 200.41 162.504C200.182 162.692 199.994 162.921 199.846 163.19C199.712 163.445 199.644 163.767 199.644 164.157C199.644 164.601 199.745 164.944 199.947 165.185C200.162 165.414 200.458 165.528 200.834 165.528C201.103 165.528 201.351 165.468 201.58 165.347C201.808 165.212 202.003 164.997 202.165 164.702L202.205 165.528C201.802 166.12 201.318 166.563 200.753 166.859C200.189 167.141 199.55 167.282 198.838 167.282ZM205.652 165.286C205.652 165.582 205.686 165.79 205.753 165.911C205.834 166.032 205.982 166.093 206.197 166.093C206.345 166.093 206.486 166.073 206.62 166.032C206.755 165.978 206.896 165.898 207.044 165.79L207.326 166.435C206.99 166.704 206.573 166.913 206.076 167.06C205.578 167.208 205.027 167.282 204.423 167.282C203.589 167.282 202.978 167.128 202.588 166.819C202.212 166.496 202.023 165.992 202.023 165.306V161.758H205.652V165.286ZM208.1 157.302V156.516H215.983V157.302H208.1ZM211.528 166.94C210.95 166.94 210.399 166.946 209.875 166.96C209.364 166.973 208.793 166.987 208.161 167V166.214L208.544 166.173C209.014 166.12 209.324 165.999 209.471 165.81C209.633 165.609 209.713 165.259 209.713 164.762V161.758H213.342V164.762C213.342 165.098 213.383 165.36 213.463 165.548C213.544 165.737 213.685 165.878 213.887 165.972C214.088 166.052 214.377 166.12 214.754 166.173L215.278 166.214V167C214.821 166.987 214.391 166.98 213.988 166.98C213.584 166.966 213.181 166.96 212.778 166.96C212.388 166.946 211.971 166.94 211.528 166.94ZM209.713 161.758V156.355C209.713 154.688 210.143 153.418 211.004 152.544C211.877 151.671 213.141 151.234 214.794 151.234C216.017 151.234 216.965 151.449 217.637 151.879C218.322 152.296 218.665 152.874 218.665 153.613C218.665 154.151 218.497 154.574 218.161 154.883C217.838 155.192 217.402 155.347 216.85 155.347C216.434 155.347 216.111 155.253 215.883 155.065C215.654 154.876 215.54 154.621 215.54 154.298C215.54 154.07 215.587 153.855 215.681 153.653C215.789 153.438 215.896 153.243 216.004 153.069C216.111 152.894 216.165 152.726 216.165 152.565C216.165 152.215 215.863 152.04 215.258 152.04C214.599 152.04 214.115 152.276 213.806 152.746C213.497 153.216 213.342 153.962 213.342 154.984V161.758H209.713ZM221.485 156.516V161.758H217.856V158.794C217.856 158.284 217.775 157.927 217.614 157.726C217.466 157.524 217.15 157.397 216.666 157.343L216.304 157.302V156.516C216.653 156.53 216.976 156.543 217.271 156.556C217.567 156.556 217.91 156.556 218.3 156.556C218.918 156.556 219.482 156.536 219.993 156.496C220.517 156.442 221.015 156.375 221.485 156.294V156.516ZM221.485 161.758V164.036C221.485 164.614 221.599 165.044 221.828 165.327C222.056 165.595 222.406 165.73 222.876 165.73C223.373 165.73 223.817 165.555 224.207 165.206C224.597 164.856 224.953 164.292 225.275 163.512L225.517 163.754C225.06 165.017 224.476 165.918 223.763 166.456C223.051 166.993 222.197 167.262 221.203 167.262C220.101 167.262 219.267 166.966 218.703 166.375C218.138 165.784 217.856 164.91 217.856 163.754V161.758H221.485ZM224.65 167V161.758H228.279V164.722C228.279 165.233 228.353 165.589 228.501 165.79C228.662 165.992 228.985 166.12 229.469 166.173L229.832 166.214V167C229.482 166.987 229.16 166.98 228.864 166.98C228.568 166.966 228.226 166.96 227.836 166.96C227.218 166.96 226.646 166.98 226.122 167.02C225.611 167.06 225.121 167.128 224.65 167.222V167ZM228.279 156.516V161.758H224.65V158.794C224.65 158.284 224.576 157.927 224.429 157.726C224.281 157.511 223.992 157.376 223.562 157.323L223.279 157.302V156.516C223.629 156.53 223.945 156.543 224.227 156.556C224.523 156.556 224.838 156.556 225.175 156.556C225.766 156.556 226.31 156.536 226.808 156.496C227.318 156.442 227.809 156.375 228.279 156.294V156.516ZM235.388 167.282C234.3 167.282 233.473 166.993 232.909 166.415C232.344 165.837 232.062 164.977 232.062 163.835V161.758H235.691V164.601C235.691 164.991 235.771 165.28 235.933 165.468C236.108 165.642 236.349 165.73 236.659 165.73C236.954 165.73 237.21 165.642 237.425 165.468C237.64 165.293 237.848 165.017 238.05 164.641L238.675 165.004C238.325 165.81 237.895 166.395 237.384 166.758C236.874 167.108 236.208 167.282 235.388 167.282ZM232.062 161.758V153.754C232.761 153.754 233.406 153.714 233.997 153.633C234.589 153.552 235.153 153.431 235.691 153.27V161.758H232.062ZM230.046 157.302V156.516H238.211V157.302H230.046ZM244.239 156.516V161.758H240.61V158.794C240.61 158.284 240.529 157.927 240.368 157.726C240.22 157.524 239.904 157.397 239.42 157.343L239.057 157.302V156.516C239.407 156.53 239.73 156.543 240.025 156.556C240.321 156.556 240.664 156.556 241.053 156.556C241.672 156.556 242.236 156.536 242.747 156.496C243.271 156.442 243.768 156.375 244.239 156.294V156.516ZM244.239 161.758V164.036C244.239 164.614 244.353 165.044 244.582 165.327C244.81 165.595 245.16 165.73 245.63 165.73C246.127 165.73 246.571 165.555 246.961 165.206C247.35 164.856 247.707 164.292 248.029 163.512L248.271 163.754C247.814 165.017 247.23 165.918 246.517 166.456C245.805 166.993 244.951 167.262 243.957 167.262C242.855 167.262 242.021 166.966 241.457 166.375C240.892 165.784 240.61 164.91 240.61 163.754V161.758H244.239ZM247.404 167V161.758H251.033V164.722C251.033 165.233 251.107 165.589 251.255 165.79C251.416 165.992 251.739 166.12 252.223 166.173L252.586 166.214V167C252.236 166.987 251.914 166.98 251.618 166.98C251.322 166.966 250.98 166.96 250.59 166.96C249.971 166.96 249.4 166.98 248.876 167.02C248.365 167.06 247.875 167.128 247.404 167.222V167ZM251.033 156.516V161.758H247.404V158.794C247.404 158.284 247.33 157.927 247.182 157.726C247.035 157.511 246.746 157.376 246.316 157.323L246.033 157.302V156.516C246.383 156.53 246.699 156.543 246.981 156.556C247.277 156.556 247.592 156.556 247.928 156.556C248.52 156.556 249.064 156.536 249.561 156.496C250.072 156.442 250.563 156.375 251.033 156.294V156.516ZM256.829 166.94C256.251 166.94 255.7 166.946 255.175 166.96C254.665 166.973 254.093 166.987 253.462 167V166.214L253.845 166.173C254.315 166.12 254.624 165.999 254.772 165.81C254.934 165.609 255.014 165.259 255.014 164.762V161.758H258.643V164.762C258.643 165.098 258.677 165.36 258.744 165.548C258.825 165.737 258.966 165.878 259.167 165.972C259.382 166.052 259.678 166.12 260.054 166.173L260.579 166.214V167C260.108 166.987 259.671 166.98 259.268 166.98C258.865 166.966 258.462 166.96 258.059 166.96C257.669 166.946 257.259 166.94 256.829 166.94ZM255.014 161.758V158.815C255.014 158.304 254.934 157.948 254.772 157.746C254.624 157.544 254.309 157.417 253.825 157.363L253.462 157.323V156.536C253.811 156.55 254.134 156.563 254.429 156.577C254.725 156.577 255.061 156.577 255.438 156.577C256.069 156.577 256.641 156.556 257.151 156.516C257.662 156.462 258.159 156.395 258.643 156.315V156.536V161.758H255.014ZM261.607 160.73C261.217 160.73 260.908 160.629 260.679 160.427C260.451 160.212 260.337 159.93 260.337 159.581C260.337 159.379 260.37 159.191 260.438 159.016C260.505 158.841 260.572 158.68 260.639 158.532C260.706 158.371 260.74 158.21 260.74 158.048C260.74 157.753 260.565 157.605 260.216 157.605C260.001 157.605 259.786 157.659 259.571 157.766C259.356 157.86 259.161 158.008 258.986 158.21C258.811 158.398 258.67 158.633 258.563 158.915L258.542 158.048C258.838 157.484 259.248 157.04 259.772 156.718C260.296 156.382 260.848 156.214 261.425 156.214C262.084 156.214 262.588 156.409 262.938 156.798C263.3 157.188 263.482 157.733 263.482 158.431C263.482 159.13 263.314 159.688 262.978 160.105C262.642 160.522 262.185 160.73 261.607 160.73ZM269.811 167.282C268.709 167.282 267.748 167.074 266.928 166.657C266.121 166.241 265.49 165.629 265.033 164.823C264.576 164.003 264.347 162.988 264.347 161.778C264.347 160.569 264.576 159.554 265.033 158.734C265.49 157.914 266.128 157.296 266.948 156.879C267.768 156.462 268.722 156.254 269.811 156.254C270.913 156.254 271.867 156.462 272.674 156.879C273.494 157.296 274.132 157.914 274.589 158.734C275.046 159.554 275.275 160.569 275.275 161.778C275.275 162.988 275.046 164.003 274.589 164.823C274.132 165.629 273.494 166.241 272.674 166.657C271.867 167.074 270.913 167.282 269.811 167.282ZM269.811 166.496C270.295 166.496 270.698 166.12 271.021 165.367C271.343 164.614 271.504 163.418 271.504 161.778C271.504 160.098 271.343 158.888 271.021 158.149C270.698 157.41 270.295 157.04 269.811 157.04C269.327 157.04 268.924 157.41 268.601 158.149C268.279 158.888 268.117 160.098 268.117 161.778C268.117 163.418 268.279 164.614 268.601 165.367C268.924 166.12 269.327 166.496 269.811 166.496Z" fill="#1B5E47"/>
</svg>
